<?xml version="1.0" encoding="utf-8"?>
<!-- Generator: Adobe Illustrator 16.2.1, SVG Export Plug-In . SVG Version: 6.00 Build 0)  -->
<!DOCTYPE svg PUBLIC "-//W3C//DTD SVG 1.1//EN" "http://www.w3.org/Graphics/SVG/1.1/DTD/svg11.dtd">
<svg version="1.1" id="Layer_2" xmlns="http://www.w3.org/2000/svg" xmlns:xlink="http://www.w3.org/1999/xlink" x="0px" y="0px"
	 width="1920px" height="1080px" viewBox="0 0 1920 1080" enable-background="new 0 0 1920 1080" xml:space="preserve">
<g>
	<path fill="#FFFFFF" d="M1365.388,873.409h-0.739v-94.57h-39.351v94.57h-11.31v-94.57h-39.354v94.57h-11.308v-94.57h-39.356v94.57
		h-24.175c-0.524-6.889-2.943-14.261-7.378-21.07l-136.844-210.084c-6.285-15.728-24.508-26.176-24.508-26.176H888.93
		c0,0-18.219,10.448-24.497,26.176L727.583,852.339c-4.435,6.81-6.854,14.182-7.379,21.07h-24.178v-94.57h-39.353v94.57h-11.307
		v-94.57h-39.356v94.57h-11.307v-94.57h-39.353v94.57h-0.741c-8.875,0-16.137,6.397-16.137,14.212v13.059
		c0,7.815,7.263,14.213,16.137,14.213h0.741v94.569h39.353v-94.569h11.307v94.569h39.356v-94.569h11.307v94.569h39.353v-94.569
		h104.207v73.734c0,12.781,13.592,23.234,30.202,23.234c16.613,0,30.208-10.453,30.208-23.234v-73.734h198.715v73.734
		c0,12.781,13.595,23.234,30.201,23.234c16.613,0,30.209-10.453,30.209-23.234v-73.734h104.203v94.569h39.356v-94.569h11.308v94.569
		h39.354v-94.569h11.31v94.569h39.351v-94.569h0.739c8.878,0,16.141-6.397,16.141-14.213v-13.059
		C1381.528,879.807,1374.266,873.409,1365.388,873.409z M1031.066,700.996l52.572,80.704l-52.572,13.466V700.996z M888.93,700.996
		v94.17L836.361,781.7L888.93,700.996z M776.624,873.409l23.608-36.244v36.244H776.624z M860.642,873.409V850.28l73.104,18.729
		c0.715,0.181,1.438,0.264,2.169,0.296l0.01,0.033h47.632l0.02-0.036c0.901,0.003,1.796-0.067,2.677-0.293l73.104-18.729v23.129
		H860.642z M1119.768,837.165l23.608,36.244h-23.608V837.165z"/>
	<circle fill="#FFFFFF" cx="960" cy="531.316" r="67.069"/>
</g>
</svg>
