<?xml version="1.0" encoding="utf-8"?>
<!-- Generator: Adobe Illustrator 16.2.1, SVG Export Plug-In . SVG Version: 6.00 Build 0)  -->
<!DOCTYPE svg PUBLIC "-//W3C//DTD SVG 1.1//EN" "http://www.w3.org/Graphics/SVG/1.1/DTD/svg11.dtd">
<svg width="955" height="1080" xmlns="http://www.w3.org/2000/svg" xmlns:xlink="http://www.w3.org/1999/xlink">
 <!-- Created with SVG-edit - http://svg-edit.googlecode.com/ -->
 <defs>
  <svg viewBox="0 0 1920 1080" height="1080px" width="1920px" y="0px" x="0px" id="svg_3" xmlns:xlink="http://www.w3.org/1999/xlink">
   <g>
    <circle r="66.753" cy="296.35" cx="959.362" fill="#E10000"/>
    <path d="m1362.839966,667.578979h-0.73999v-94.122986h-39.160034v94.122986h-11.259888v-94.122986h-39.170044v94.122986h-11.25v-94.122986h-39.170044v94.122986h-66.209961c1.219971,-7.469971 0.25,-16.122009 -3.310059,-24.527954l-100.73999,-237.627014c-1.779907,-4.208008 -4.069946,-7.977997 -6.679932,-11.257019c-7.969971,-13.46698 -15.060059,-13.453979 -15.060059,-13.453979h-8.109985c-0.47998,-0.019012 -0.949951,-0.013 -1.419983,0h-122.39502c-0.46698,-0.013 -0.940979,-0.019012 -1.417969,0h-8.117981c0,0 -7.088013,-0.013 -15.05304,13.453979c-2.609009,3.279022 -4.906006,7.049011 -6.687012,11.257019l-100.72998,237.627014c-3.559021,8.405945 -4.534973,17.05896 -3.309021,24.527954h-66.212952v-94.122986h-39.170044v94.122986h-11.252991v-94.122986h-39.169983v94.122986h-11.254028v-94.122986h-39.164978v94.122986h-0.739014c-8.833008,0 -16.060974,6.367004 -16.060974,14.145996v12.996033c0,7.778992 7.227966,14.145996 16.060974,14.145996h0.739014v94.122986h39.164978v-94.122986h11.253052v94.122986h39.169983v-94.122986h11.252991v94.122986h39.169983v-94.122986h191.991028v0.52002v267.210999c0,20.684998 13.529968,37.612 30.062012,37.612c16.533997,0 30.05896,-16.92804 30.05896,-37.612v-267.212036h21.223022v267.210999c0,20.684998 13.529968,37.603027 30.059021,37.603027c16.529968,0 30.059937,-16.919006 30.059937,-37.603027v-267.210999v-0.519958h192v94.122986h39.170044v-94.122986h11.25v94.122986h39.170044v-94.122986h11.25v94.122986h39.169922v-94.122986h0.72998c8.840088,0 16.070068,-6.366028 16.070068,-14.146057v-12.995972c0,-7.778015 -7.22998,-14.14502 -16.060059,-14.14502zm-550.483948,0c0.710999,-1.324951 1.385986,-2.68396 1.987976,-4.109009l74.283997,-175.23996v179.348969h-76.271973l0,0zm217.733948,-179.348969l74.290039,175.23996c0.599976,1.426025 1.280029,2.784058 1.98999,4.109009h-76.280029v-179.348969l0,0z" fill="#E10000"/>
   </g>
  </svg>
 </defs>
 <g>
  <title>Layer 1</title>
  <use x="0" y="61.820078" transform="matrix(1.1323182042516722,0,0,1.1323182042516722,-608.2981699065152,-137.38192889313046) " id="svg_4" xlink:href="#svg_3"/>
 </g>
</svg>