<?xml version="1.0" encoding="utf-8"?>
<!-- Generator: Adobe Illustrator 16.2.1, SVG Export Plug-In . SVG Version: 6.00 Build 0)  -->
<!DOCTYPE svg PUBLIC "-//W3C//DTD SVG 1.1//EN" "http://www.w3.org/Graphics/SVG/1.1/DTD/svg11.dtd">
<svg width="845" height="957" xmlns="http://www.w3.org/2000/svg">
 <g>
  <title>Layer 1</title>
  <g id="svg_1">
   <path id="svg_2" d="m828.39001,812.409h-0.73999v-94.57001h-39.34998v94.57001h-11.31006v-94.57001h-39.35999v94.57001h-11.30005v-94.57001h-39.35999v94.57001h-24.17993c-0.52002,-6.88898 -2.94006,-14.26099 -7.37,-21.07001l-136.8501,-210.08398c-6.27991,-15.72803 -24.50989,-26.17603 -24.50989,-26.17603h-142.13007c0,0 -18.21899,10.448 -24.49701,26.17603l-136.84998,210.08398c-4.435,6.81 -6.854,14.18201 -7.37903,21.07001h-24.17798v-94.57001h-39.35303v94.57001h-11.30695v-94.57001h-39.35602v94.57001h-11.30701v-94.57001h-39.35303v94.57001h-0.74097c-8.875,0 -16.13702,6.39703 -16.13702,14.21198v13.05902c0,7.815 7.263,14.21301 16.13702,14.21301h0.74097v94.56696h39.35303v-94.56696h11.30701v94.56696h39.35602v-94.56696h11.30695v94.56696h39.35303v-94.56696h104.20697v73.73407c0,12.78284 13.59204,23.23291 30.20203,23.23291c16.61298,0 30.20801,-10.45007 30.20801,-23.23291v-73.73407h198.71698v73.73407c0,12.78284 13.58997,23.23291 30.20007,23.23291c16.60999,0 30.20996,-10.45007 30.20996,-23.23291v-73.73407h104.19995v94.56696h39.35999v-94.56696h11.31006v94.56696h39.34998v-94.56696h11.31006v94.56696h39.34998v-94.56696h0.73999c8.88,0 16.14001,-6.39703 16.14001,-14.21301v-13.05902c0,-7.81396 -7.26001,-14.21198 -16.14001,-14.21198zm-334.32007,-172.41302l52.57007,80.70404l-52.57007,13.466v-94.17004l0,0zm-142.13995,0v94.17004l-52.56897,-13.466l52.56897,-80.70404zm-112.30597,172.41302l23.60797,-36.24402v36.24402h-23.60797l0,0zm84.01801,0v-23.12897l73.10394,18.72894c0.71503,0.18103 1.43805,0.26404 2.16901,0.29602l0.01001,0.03302h47.63202l0.02002,-0.03601c0.901,0.00299 1.79596,-0.06702 2.677,-0.29303l73.10596,-18.72894v23.12897h-198.71796l0,0zm259.12799,-36.24402l23.60999,36.24402h-23.60999v-36.24402l0,0z" fill="#FFFFFF"/>
   <circle id="svg_3" r="67.069" cy="470.316" cx="423" fill="#FFFFFF"/>
  </g>
 </g>
</svg>