<?xml version="1.0" encoding="utf-8"?>
<!-- Generator: Adobe Illustrator 16.2.1, SVG Export Plug-In . SVG Version: 6.00 Build 0)  -->
<!DOCTYPE svg PUBLIC "-//W3C//DTD SVG 1.1//EN" "http://www.w3.org/Graphics/SVG/1.1/DTD/svg11.dtd">
<svg width="955" height="1080" xmlns="http://www.w3.org/2000/svg" xmlns:xlink="http://www.w3.org/1999/xlink">
 <!-- Created with SVG-edit - http://svg-edit.googlecode.com/ -->
 <defs>
  <svg viewBox="0 0 1920 1080" height="1080px" width="1920px" y="0px" x="0px" id="svg_1" xmlns:xlink="http://www.w3.org/1999/xlink">
   <g>
    <path d="m959.697021,362.365997c36.898987,0 66.812012,-29.915985 66.812012,-66.81601c0,-36.895996 -29.913025,-66.806992 -66.812012,-66.806992c-36.898987,0 -66.809998,29.910019 -66.809998,66.806992c0,36.901001 29.91095,66.81601 66.809998,66.81601z" fill="#00C800"/>
    <path d="m1363.524048,163.610001h-0.733032v-94.202003h-39.202026v94.202003h-11.263916v-94.202003h-39.202026v94.202003h-11.264038v-94.202003h-39.203979v94.202003h-525.915039v-94.202003h-39.203003v94.202003h-11.263977v-94.202003h-39.205994v94.202003h-11.263v-94.202003h-39.200012v94.202003h-0.739014c-8.840027,0 -16.075012,6.373001 -16.075012,14.162003v13.009003c0,7.780991 7.234985,14.153992 16.075012,14.153992h0.739014v94.208008h39.200012v-94.208008h11.263v94.208008h39.205994v-94.208008h11.263977v94.208008h39.203003v-94.208008h39.187012c-0.733032,8.693008 1.838013,18.889999 7.86499,28.154999l145.109985,223.192993v252.665985v267.446045c0,20.703003 13.541016,37.64502 30.090027,37.64502c16.545959,0 30.084961,-16.94104 30.084961,-37.64502v-267.446045h21.242004v267.446045c0,20.702942 13.540039,37.644958 30.085999,37.644958s30.08905,-16.940979 30.08905,-37.644958v-267.446045v-252.665985l145.108032,-223.192993c6.027954,-9.265991 8.5979,-19.46199 7.863892,-28.154999h39.187988v94.208008h39.204102v-94.208008h11.263916v94.208008h39.202026v-94.208008h11.264038v94.208008h39.202026v-94.208008h0.73291c8.843994,0 16.081055,-6.373001 16.081055,-14.153992v-13.009003c0.000977,-7.789001 -7.235962,-14.162003 -16.079956,-14.162003zm-345.910034,216.382004h-115.835022l-113.809021,-175.057007h343.453979l-113.809937,175.057007z" fill="#00C800"/>
   </g>
  </svg>
 </defs>
 <g>
  <title>Layer 1</title>
  <use x="-38.7199" y="-4.648375" transform="matrix(1.134633255593395,0,0,1.134633255593395,-566.4298598371857,-71.91732096731823) " id="svg_2" xlink:href="#svg_1"/>
 </g>
</svg>
